<?xml version="1.0" encoding="utf-8"?>
<!-- Generator: Adobe Illustrator 22.1.0, SVG Export Plug-In . SVG Version: 6.00 Build 0)  -->
<svg version="1.1" id="Layer_1" xmlns="http://www.w3.org/2000/svg" xmlns:xlink="http://www.w3.org/1999/xlink" x="0px" y="0px"
	 viewBox="0 0 768 768" style="enable-background:new 0 0 768 768;" xml:space="preserve">
<style type="text/css">
	.st0{fill:none;}
	.st1{fill:#129B28;}
	.st2{fill:#024BB5;}
</style>
<rect y="0" class="st0" width="768" height="768"/>
<g>
	<g>
		<g>
			<path id="SVGID_1_" class="st1" d="M378.5,537c-20.2,0-37,6.4-50.5,19.1c-13.5,12.8-20.2,29-20.2,48.9s6.7,36.1,20.2,48.9
				c13.5,12.7,30.3,19.1,50.5,19.1s37-6.4,50.5-19.1c13.5-12.7,20.2-29,20.2-48.9c0-19.8-6.7-36.1-20.2-48.9
				C415.5,543.4,398.6,537,378.5,537"/>
		</g>
	</g>
	<g>
		<g>
			<path id="SVGID_3_" class="st2" d="M528,133c-33.8-25.3-81.3-38-142.8-38c-61.7,0-114.8,17.1-151.3,42
				c-44.6,30.4-44.1,98.9-44.6,148h131.4V109.8L503.5,248L321.9,385.4c-3.2,29-3.2,55.2-3.2,83.6h118.2c0.5-18.7,3.4-34.1,8.7-46.2
				c5.2-12.2,14.6-24,28.1-35.6l47.5-39.4c20.1-17.4,34.7-34.5,43.8-51.2s13.6-35.2,13.6-55.6C578.7,194.2,561.8,158.3,528,133"/>
		</g>
	</g>
</g>
</svg>
